<svg width="250" height="250" viewBox="0 0 250 250" fill="none" xmlns="http://www.w3.org/2000/svg">
<path fill-rule="evenodd" clip-rule="evenodd" d="M125 46.3768C106.292 46.3768 89.0929 50.0996 73.8249 56.5385C71.2799 57.6118 68.7886 58.7605 66.3529 59.9801C51.219 67.5576 38.2328 77.8685 27.865 89.7945C25.5017 92.5129 23.2744 95.3153 21.1888 98.1884C-22.19 157.944 -4.30411 248.27 125 249.976C252.788 251.663 271.755 162.342 230.312 101.47C227.924 97.9626 225.335 94.5496 222.555 91.254C212.878 79.7809 200.882 69.7296 186.958 62.064C184.547 60.7367 182.078 59.4808 179.554 58.3015C163.46 50.784 145.101 46.3768 125 46.3768ZM185.158 144.526C179.554 132.485 74.1985 129.931 68.5945 144.526C67.1507 170.995 82.4592 183.768 120.899 191.229C128.718 203.457 114.028 211.397 99.6034 201.446C94.5739 214.694 156.146 218.066 154.523 201.446C138.623 210.246 125.654 204.583 132.854 191.229C169.125 185.226 185.599 171.967 185.158 144.526Z" fill="url(#paint0_linear_633_2)"/>
<path d="M27.865 89.7945C38.2328 77.8685 51.219 67.5576 66.3529 59.9801C57.4337 47.9043 47.6381 44.0471 39.0801 45.0521L46.9257 52.2124C22.964 38.0525 1.92426 74.9409 27.865 89.7945Z" fill="#470004"/>
<path d="M186.958 62.064C200.882 69.7296 212.878 79.7809 222.555 91.254C253.153 78.1185 232.997 39.1422 207.2 51.4827L214.672 44.9899C205.769 44.2445 195.67 48.7399 186.958 62.064Z" fill="#470004"/>
<path d="M230.312 101.47C286.03 73.74 207.947 -14.5597 179.554 58.3015C182.078 59.4808 184.547 60.7367 186.958 62.064C195.67 48.7399 205.769 44.2445 214.672 44.9899L207.2 51.4827C232.997 39.1422 253.153 78.1185 222.555 91.254C225.335 94.5496 227.924 97.9626 230.312 101.47Z" fill="url(#paint1_linear_633_2)"/>
<path d="M73.8249 56.5385C44.6841 -14.195 -32.2776 75.9288 21.1888 98.1884C23.2744 95.3153 25.5017 92.5129 27.865 89.7945C1.92426 74.9409 22.964 38.0525 46.9257 52.2124L39.0801 45.0521C47.6381 44.0471 57.4337 47.9043 66.3529 59.9801C68.7886 58.7605 71.2799 57.6118 73.8249 56.5385Z" fill="url(#paint2_linear_633_2)"/>
<path d="M68.5945 144.526C74.1985 129.931 179.554 132.485 185.158 144.526C185.599 171.967 169.125 185.226 132.854 191.229C125.654 204.583 138.623 210.246 154.523 201.446C156.146 218.066 94.5739 214.694 99.6034 201.446C114.028 211.397 128.718 203.457 120.899 191.229C82.4592 183.768 67.1507 170.995 68.5945 144.526Z" fill="black"/>
<path d="M56.4132 125.729C59.8959 61.6522 114.734 67.6902 109.409 125.729C88.6888 123.067 77.1174 123.087 56.4132 125.729Z" fill="black"/>
<path d="M140.83 125.729C139.056 64.3794 191.857 65.377 193.586 125.729C172.666 122.811 161.167 123.264 140.83 125.729Z" fill="black"/>
<path fill-rule="evenodd" clip-rule="evenodd" d="M193.834 126.001C193.752 126.072 193.642 126.105 193.533 126.09C172.653 123.178 161.188 123.629 140.876 126.091C140.771 126.103 140.666 126.072 140.586 126.005C140.507 125.938 140.459 125.842 140.456 125.739C140.011 110.356 142.986 98.8391 147.762 91.1704C152.54 83.4982 159.138 79.6621 165.897 79.726C172.652 79.7899 179.461 83.7465 184.675 91.4392C189.889 99.1326 193.525 110.582 193.959 125.718C193.962 125.826 193.916 125.929 193.834 126.001ZM56.1588 125.996C56.0773 125.923 56.0336 125.818 56.0395 125.709C56.9127 109.644 61.0066 97.9327 66.608 90.3218C72.2112 82.7085 79.3382 79.1852 86.235 79.5714C93.1303 79.9574 99.6963 84.246 104.19 92.0542C108.683 99.8612 111.117 111.199 109.781 125.761C109.772 125.86 109.722 125.951 109.642 126.013C109.563 126.076 109.461 126.103 109.36 126.09C88.6722 123.433 77.1334 123.453 56.461 126.09C56.351 126.104 56.2402 126.07 56.1588 125.996ZM193.199 125.306C192.712 110.482 189.12 99.3199 184.052 91.842C178.934 84.291 172.33 80.5166 165.89 80.4557C159.455 80.3949 153.077 84.0404 148.4 91.5496C143.762 98.9965 140.813 110.228 141.192 125.317C161.158 122.911 172.655 122.47 193.199 125.306ZM109.07 125.317C110.32 111.043 107.9 99.9909 103.539 92.4118C99.1389 84.7669 92.7761 80.6686 86.1922 80.2999C79.6097 79.9313 72.7068 83.2854 67.2147 90.7477C61.7712 98.1441 57.7285 109.564 56.8103 125.31C77.1393 122.737 88.7079 122.721 109.07 125.317Z" fill="black"/>
<path d="M150.56 124.787C149.815 100.989 172.998 100.646 173.724 124.057C154.65 124.099 159.336 124.699 150.56 124.787Z" fill="white"/>
<path d="M73.974 124.386C75.2908 99.8945 98.0297 102.567 96.0163 124.751C88.5529 124.203 82.1951 123.861 73.974 124.386Z" fill="white"/>
<path d="M205.37 56.5555C126.738 50.2371 78.4206 56.5137 31.2718 75.5289C20.6343 74.5343 41.1955 54.3495 64.8958 44.5146C75.3387 14.9202 81.4888 1.24265 94.7838 0C126.781 3.4914 140.251 3.96692 151.945 0.729748C172.233 6.38207 172.302 19.425 176.602 39.0415C199.454 47.0124 208.548 51.1196 205.37 56.5555Z" fill="#2B0000"/>
<path d="M87.5 12.208L88.6226 15.5822H92.2553L89.3164 17.6676L90.4389 21.0418L87.5 18.9564L84.5611 21.0418L85.6836 17.6676L82.7447 15.5822H86.3774L87.5 12.208Z" fill="#503E3E"/>
<path d="M117.5 21.9744L118.623 25.3486H122.255L119.316 27.434L120.439 30.8082L117.5 28.7228L114.561 30.8082L115.684 27.434L112.745 25.3486H116.377L117.5 21.9744Z" fill="#503E3E"/>
<path d="M82.5 42.321L83.6226 45.6953H87.2553L84.3164 47.7806L85.4389 51.1549L82.5 49.0695L79.5611 51.1549L80.6836 47.7806L77.7447 45.6953H81.3774L82.5 42.321Z" fill="#503E3E"/>
<path d="M147.5 15.4634L148.623 18.8376H152.255L149.316 20.923L150.439 24.2972L147.5 22.2118L144.561 24.2972L145.684 20.923L142.745 18.8376H146.377L147.5 15.4634Z" fill="#503E3E"/>
<path d="M162.5 34.9963L163.623 38.3706H167.255L164.316 40.4559L165.439 43.8302L162.5 41.7448L159.561 43.8302L160.684 40.4559L157.745 38.3706H161.377L162.5 34.9963Z" fill="#503E3E"/>
<defs>
<linearGradient id="paint0_linear_633_2" x1="125" y1="29.9197" x2="125" y2="250" gradientUnits="userSpaceOnUse">
<stop offset="0.015625" stop-color="#F8B792"/>
<stop offset="0.385417" stop-color="#FDB87D"/>
<stop offset="0.760417" stop-color="#D55849"/>
<stop offset="1" stop-color="#BA1B1B"/>
</linearGradient>
<linearGradient id="paint1_linear_633_2" x1="125" y1="29.9197" x2="125" y2="250" gradientUnits="userSpaceOnUse">
<stop stop-color="#F8B792"/>
<stop offset="0.171875" stop-color="#D45849"/>
<stop offset="0.411458" stop-color="#BA1B1B"/>
<stop offset="0.541667" stop-color="#FDB87D"/>
</linearGradient>
<linearGradient id="paint2_linear_633_2" x1="125" y1="29.9197" x2="125" y2="250" gradientUnits="userSpaceOnUse">
<stop stop-color="#F8B792"/>
<stop offset="0.171875" stop-color="#D45849"/>
<stop offset="0.411458" stop-color="#BA1B1B"/>
<stop offset="0.541667" stop-color="#FDB87D"/>
</linearGradient>
</defs>
</svg>
