<svg width="300" height="308" viewBox="0 0 300 308" fill="none" xmlns="http://www.w3.org/2000/svg">
<path fill-rule="evenodd" clip-rule="evenodd" d="M150 56.9831C127.551 56.9831 106.911 61.5573 88.5899 69.4687C85.5359 70.7875 82.5463 72.1989 79.6235 73.6974C61.4628 83.0079 45.8794 95.6769 33.438 110.33C30.602 113.671 27.9293 117.114 25.4265 120.644C-26.628 194.066 -5.16493 305.049 150 307.146C303.346 309.218 326.106 199.469 276.374 124.676C273.508 120.367 270.402 116.173 267.066 112.124C255.453 98.0267 241.058 85.6766 224.35 76.258C221.457 74.627 218.494 73.084 215.465 71.635C196.153 62.3982 174.121 56.9831 150 56.9831ZM222.189 177.578C215.465 162.784 89.0382 159.646 82.3134 177.578C80.5808 210.101 98.951 225.796 145.078 234.963C154.461 249.987 136.834 259.743 119.524 247.516C113.489 263.794 187.375 267.938 185.427 247.516C166.348 258.329 150.785 251.371 159.425 234.963C202.95 227.587 222.718 211.296 222.189 177.578Z" fill="url(#paint0_linear_633_2)"/>
<path d="M33.438 110.33C45.8794 95.6769 61.4628 83.0079 79.6235 73.6974C68.9204 58.8599 57.1657 54.1206 46.8961 55.3554L56.3108 64.1533C27.5567 46.755 2.30911 92.0798 33.438 110.33Z" fill="#470004"/>
<path d="M224.35 76.258C241.058 85.6766 255.453 98.0267 267.066 112.124C303.784 95.9841 279.597 48.0939 248.64 63.2567L257.607 55.279C246.923 54.3631 234.804 59.8866 224.35 76.258Z" fill="#470004"/>
<path d="M276.374 124.676C343.236 90.6042 249.537 -17.8895 215.465 71.635C218.494 73.084 221.457 74.627 224.35 76.258C234.804 59.8866 246.923 54.3631 257.607 55.279L248.64 63.2567C279.597 48.0939 303.784 95.9841 267.066 112.124C270.402 116.173 273.508 120.367 276.374 124.676Z" fill="url(#paint1_linear_633_2)"/>
<path d="M88.5899 69.4687C53.6209 -17.4415 -38.7331 93.2935 25.4265 120.644C27.9293 117.114 30.602 113.671 33.438 110.33C2.30911 92.0798 27.5567 46.755 56.3108 64.1533L46.8961 55.3554C57.1657 54.1206 68.9204 58.8599 79.6235 73.6974C82.5463 72.1989 85.5359 70.7875 88.5899 69.4687Z" fill="url(#paint2_linear_633_2)"/>
<path d="M82.3134 177.578C89.0382 159.646 215.465 162.784 222.189 177.578C222.718 211.296 202.95 227.587 159.425 234.963C150.785 251.371 166.348 258.329 185.427 247.516C187.375 267.938 113.489 263.794 119.524 247.516C136.834 259.743 154.461 249.987 145.078 234.963C98.951 225.796 80.5808 210.101 82.3134 177.578Z" fill="black"/>
<path d="M67.6959 154.483C71.8752 75.7521 137.681 83.171 131.291 154.483C106.427 151.213 92.541 151.237 67.6959 154.483Z" fill="black"/>
<path d="M168.997 154.483C166.867 79.103 230.228 80.3288 232.303 154.483C207.199 150.898 193.401 151.455 168.997 154.483Z" fill="black"/>
<path fill-rule="evenodd" clip-rule="evenodd" d="M232.601 154.817C232.503 154.905 232.37 154.945 232.239 154.926C207.183 151.349 193.426 151.903 169.051 154.927C168.926 154.943 168.8 154.905 168.704 154.823C168.608 154.74 168.551 154.622 168.548 154.495C168.014 135.594 171.583 121.443 177.314 112.021C183.048 102.594 190.965 97.8807 199.077 97.9592C207.182 98.0377 215.354 102.899 221.61 112.351C227.867 121.804 232.23 135.872 232.751 154.47C232.754 154.602 232.7 154.729 232.601 154.817ZM67.3907 154.812C67.293 154.721 67.2406 154.592 67.2476 154.459C68.2955 134.719 73.2081 120.33 79.9298 110.978C86.6537 101.624 95.206 97.2947 103.482 97.7692C111.757 98.2435 119.636 103.513 125.028 113.107C130.42 122.699 133.34 136.63 131.737 154.523C131.726 154.644 131.666 154.756 131.571 154.832C131.475 154.909 131.353 154.943 131.232 154.927C106.407 151.662 92.5602 151.686 67.7534 154.927C67.6213 154.944 67.4884 154.902 67.3907 154.812ZM231.839 153.964C231.254 135.749 226.944 122.034 220.862 112.846C214.721 103.568 206.797 98.9306 199.068 98.8558C191.347 98.7811 183.693 103.26 178.08 112.487C172.515 121.637 168.976 135.437 169.431 153.977C193.39 151.02 207.186 150.479 231.839 153.964ZM130.885 153.977C132.385 136.439 129.481 122.859 124.247 113.546C118.967 104.153 111.332 99.1173 103.431 98.6643C95.5318 98.2115 87.2484 102.333 80.6579 111.502C74.1256 120.589 69.2744 134.621 68.1726 153.968C92.5674 150.807 106.45 150.787 130.885 153.977Z" fill="black"/>
<path d="M180.672 153.326C179.778 124.085 207.597 123.664 208.468 152.429C185.58 152.48 191.203 153.217 180.672 153.326Z" fill="white"/>
<path d="M88.7688 152.833C90.349 122.74 117.636 126.024 115.22 153.281C106.264 152.608 98.6341 152.189 88.7688 152.833Z" fill="white"/>
<path d="M246.443 69.4897C152.086 61.7263 94.1047 69.4384 37.5261 92.8023C24.7612 91.5803 49.4346 66.7792 77.875 54.6951C90.4064 18.3324 97.7865 1.52684 113.741 0C152.137 4.28989 168.302 4.87415 182.334 0.896641C206.68 7.84165 206.763 23.8675 211.923 47.9703C239.345 57.7641 250.257 62.8106 246.443 69.4897Z" fill="#2B0000"/>
<path d="M105 15L106.347 19.1459H110.706L107.18 21.7082L108.527 25.8541L105 23.2918L101.473 25.8541L102.82 21.7082L99.2937 19.1459H103.653L105 15Z" fill="#503E3E"/>
<path d="M141 27L142.347 31.1459H146.706L143.18 33.7082L144.527 37.8541L141 35.2918L137.473 37.8541L138.82 33.7082L135.294 31.1459H139.653L141 27Z" fill="#503E3E"/>
<path d="M99 52L100.347 56.1459H104.706L101.18 58.7082L102.527 62.8541L99 60.2918L95.4733 62.8541L96.8204 58.7082L93.2937 56.1459H97.6529L99 52Z" fill="#503E3E"/>
<path d="M177 19L178.347 23.1459H182.706L179.18 25.7082L180.527 29.8541L177 27.2918L173.473 29.8541L174.82 25.7082L171.294 23.1459H175.653L177 19Z" fill="#503E3E"/>
<path d="M195 43L196.347 47.1459H200.706L197.18 49.7082L198.527 53.8541L195 51.2918L191.473 53.8541L192.82 49.7082L189.294 47.1459H193.653L195 43Z" fill="#503E3E"/>
<defs>
<linearGradient id="paint0_linear_633_2" x1="150" y1="36.7622" x2="150" y2="307.175" gradientUnits="userSpaceOnUse">
<stop offset="0.015625" stop-color="#F8B792"/>
<stop offset="0.385417" stop-color="#FDB87D"/>
<stop offset="0.760417" stop-color="#D55849"/>
<stop offset="1" stop-color="#BA1B1B"/>
</linearGradient>
<linearGradient id="paint1_linear_633_2" x1="150" y1="36.7622" x2="150" y2="307.175" gradientUnits="userSpaceOnUse">
<stop stop-color="#F8B792"/>
<stop offset="0.171875" stop-color="#D45849"/>
<stop offset="0.411458" stop-color="#BA1B1B"/>
<stop offset="0.541667" stop-color="#FDB87D"/>
</linearGradient>
<linearGradient id="paint2_linear_633_2" x1="150" y1="36.7622" x2="150" y2="307.175" gradientUnits="userSpaceOnUse">
<stop stop-color="#F8B792"/>
<stop offset="0.171875" stop-color="#D45849"/>
<stop offset="0.411458" stop-color="#BA1B1B"/>
<stop offset="0.541667" stop-color="#FDB87D"/>
</linearGradient>
</defs>
</svg>
